<svg width="26" height="26" viewBox="0 0 26 26" fill="none" xmlns="http://www.w3.org/2000/svg">
<path d="M10 25H16" stroke="#177FBF" stroke-width="2" stroke-linecap="round" stroke-linejoin="round"/>
<path fill-rule="evenodd" clip-rule="evenodd" d="M13 5.94118C16.7279 5.94118 19.75 8.78549 19.75 12.2941C19.75 14.7878 18.2234 16.946 16.0018 17.9858L16 19.3529C16 20.9123 14.6569 22.1765 13 22.1765C11.3431 22.1765 10 20.9123 10 19.3529L9.99968 17.9865C7.77728 16.9469 6.25 14.7884 6.25 12.2941C6.25 8.78549 9.27208 5.94118 13 5.94118Z" stroke="#177FBF" stroke-width="2" stroke-linecap="round" stroke-linejoin="round"/>
<path d="M13 2.41176V1" stroke="#177FBF" stroke-width="2" stroke-linecap="round" stroke-linejoin="round"/>
<path d="M20.5 5.2353L22 3.82353" stroke="#177FBF" stroke-width="2" stroke-linecap="round" stroke-linejoin="round"/>
<path d="M5.5 5.2353L4 3.82353" stroke="#177FBF" stroke-width="2" stroke-linecap="round" stroke-linejoin="round"/>
<path d="M20.5 17.9412L22 19.3529" stroke="#177FBF" stroke-width="2" stroke-linecap="round" stroke-linejoin="round"/>
<path d="M5.5 17.9412L4 19.3529" stroke="#177FBF" stroke-width="2" stroke-linecap="round" stroke-linejoin="round"/>
<path d="M2.5 10.8824H1" stroke="#177FBF" stroke-width="2" stroke-linecap="round" stroke-linejoin="round"/>
<path d="M25 10.8824H23.5" stroke="#177FBF" stroke-width="2" stroke-linecap="round" stroke-linejoin="round"/>
</svg>
