<svg width="28" height="28" viewBox="0 0 28 28" fill="none" xmlns="http://www.w3.org/2000/svg">
<path d="M17.1851 5.76976H11.7769C11.3832 5.76976 10.9963 5.45031 10.913 5.05887L10.6273 3.71358C10.5441 3.31989 10.7938 3.00269 11.1875 3.00269H16.5957C16.9894 3.00269 17.3763 3.32214 17.4595 3.71358L17.7452 5.05887C17.8285 5.45031 17.5788 5.76976 17.1851 5.76976Z" fill="#946134"/>
<path d="M12.3461 5.76976H6.93791C6.54422 5.76976 6.15728 5.45031 6.07404 5.05887L5.78834 3.71358C5.7051 3.31989 5.95481 3.00269 6.3485 3.00269H11.7567C12.1504 3.00269 12.5373 3.32214 12.6205 3.71358L12.9062 5.05887C12.9895 5.45031 12.7398 5.76976 12.3461 5.76976Z" fill="#FF8F00"/>
<path d="M0.564978 3.00033C0.268023 3.03407 0.0183111 3.31303 0.0205607 3.61224C0.00256346 11.5715 0.00256348 14.6243 0.00256348 23.191C0.00256348 23.5104 0.295019 23.8029 0.61447 23.8029H22.0447C22.1324 23.8029 22.2179 23.7804 22.2967 23.7422C22.5014 23.6454 22.6229 23.4295 22.6431 23.2045L23.8714 9.0969C23.8737 9.0789 23.8737 9.06091 23.8737 9.04291C23.8849 8.06206 23.8782 7.24993 23.8737 6.33432C23.8714 5.62343 23.2888 5.04302 22.5779 5.04302H8.24305C7.95285 5.04302 7.69639 4.8608 7.59965 4.58859C7.47817 4.24664 7.3072 3.76521 7.14972 3.32878C7.03049 2.99808 6.54231 2.99808 6.41183 3.00033H0.564978Z" fill="url(#paint0_linear_198_520)"/>
<path d="M21.9319 23.8411H0.728877C0.204707 23.8411 -0.105746 23.4541 0.0337332 22.975L3.8649 9.93594C4.00438 9.45676 4.54429 9.06982 5.06846 9.06982H26.2715C26.7956 9.06982 27.1061 9.45676 26.9666 9.93594L23.1355 22.975C22.9937 23.4541 22.4561 23.8411 21.9319 23.8411Z" fill="url(#paint1_linear_198_520)"/>
<path opacity="0.2" d="M16.5957 3.67526C16.6655 3.67526 16.7802 3.76525 16.7982 3.85299L17.0816 5.18703C17.1469 5.49973 17.4236 5.72245 17.7408 5.72245H22.5731C22.9083 5.72245 23.1917 6.00591 23.194 6.34111L23.1962 6.84728C23.1985 7.56492 23.203 8.24207 23.194 9.02945V9.04294C23.185 9.22742 23.2524 9.40739 23.3784 9.54012C23.5067 9.67285 23.6821 9.74934 23.8666 9.74934H26.2692C26.2872 9.74934 26.303 9.75159 26.3165 9.75159L22.4876 22.7861C22.4358 22.9593 22.1771 23.1663 21.9319 23.1663H0.728889C0.706392 23.1663 0.688395 23.164 0.677147 23.1618V23.155C0.677147 14.6738 0.679396 11.6278 0.695144 3.67526H6.34853H6.36428H16.5957ZM16.5957 3.00037H6.34853H6.34628H0.562414C0.265459 3.03411 0.0157476 3.31307 0.0179972 3.61227C-1.67612e-08 11.5716 0 14.6243 0 23.191C0 23.209 0.00449925 23.2293 0.00674891 23.2473C0.0314951 23.5915 0.310453 23.8412 0.728889 23.8412H21.9319C22.4561 23.8412 22.9937 23.4542 23.1355 22.9751L26.9666 9.93606C27.1061 9.45688 26.7957 9.06994 26.2715 9.06994H23.8689C23.8689 9.06094 23.8711 9.05194 23.8711 9.04294C23.8824 8.06209 23.8756 7.24997 23.8711 6.33436C23.8689 5.62347 23.2862 5.04305 22.5753 5.04305H17.743L17.4596 3.70901C17.3763 3.31982 16.9894 3.00037 16.5957 3.00037Z" fill="#424242"/>
<defs>
<linearGradient id="paint0_linear_198_520" x1="11.9381" y1="3.02103" x2="11.9381" y2="23.7377" gradientUnits="userSpaceOnUse">
<stop stop-color="#FFC107"/>
<stop offset="0.1894" stop-color="#F1AF06"/>
<stop offset="0.5692" stop-color="#CD7F02"/>
<stop offset="0.7232" stop-color="#BD6A00"/>
</linearGradient>
<linearGradient id="paint1_linear_198_520" x1="13.4997" y1="9.01178" x2="13.4997" y2="23.8141" gradientUnits="userSpaceOnUse">
<stop stop-color="#FFEE58"/>
<stop offset="0.2852" stop-color="#FFEA54"/>
<stop offset="0.5961" stop-color="#FDDC48"/>
<stop offset="0.9179" stop-color="#FCC733"/>
<stop offset="1" stop-color="#FBC02D"/>
</linearGradient>
</defs>
</svg>
