<svg xmlns="http://www.w3.org/2000/svg" version="1.0" viewBox="0 0 2751 2793"><path d="M1282.9 922c-6.2 3.3-18.6 20.6-27.2 37.5-8.6 17.2-15.4 40.3-18.1 61.6-2.2 16.5-2.2 45.3-.1 59.6 5.6 38.1 19.9 71.7 42.3 99.4 33.6 41.6 85 54.8 131.7 33.9 29.1-13.1 61.4-51.9 74.1-89.2 4.6-13.4 6.1-19.5 8.9-36.1 8.8-52.6-1.2-107.3-26.8-146.3-8.6-13.1-14.3-19.2-19.1-20.5-12.1-3.3-22.6 4.3-22.6 16.3 0 5 1.1 7.1 10.2 20.5 20 29.3 29.2 67.9 25.9 108.5-3.3 42.2-16.1 72.2-41.5 97.3-13.9 13.7-25 20-41.2 23.1-17.4 3.3-34.9-.1-51.1-9.7-23.4-14.1-46.9-50.9-53.7-84-5.4-26.7-4.8-63.3 1.5-88.1 4.4-17.7 13.5-37.3 23.3-50.8 3.1-4.1 6.3-8.9 7.2-10.5 3.7-6.5 1.2-17.4-4.9-21.7-4.4-3.1-13.9-3.5-18.8-.8zm261.6 34.6c-7.5 3.9-8.9 6.6-11.9 24.1-4 22.7-4.9 35.2-4.4 62.5.5 27.2.9 29.9 6 34.6 1.4 1.2 5 2.8 8.1 3.4 5.2 1.1 5.9 1 8.5-.9 1.6-1.2 8.5-4.9 15.3-8.3 25.9-13 46.7-27.2 66.5-45.2 6.4-5.9 8.4-9.7 8.4-15.9 0-12-13.8-20.6-24.3-15.3-1.8.9-5.8 4.1-9 7-9.9 9.2-40.9 31.4-43.7 31.4-2.7 0-.4-33.8 3.4-51.8 2.1-9.7 2-13.5-.4-18.2-3.9-7.6-15-11.3-22.5-7.4zm-366.9 1.4c-4.3 1.3-10.5 7.9-11.7 12.2-.8 3.1-.5 6.3 1.5 16.1 4.1 19.8 6.3 51.7 3.6 51.7-2.7 0-32.3-21.6-42.3-30.9-3.4-3.2-7.6-6.6-9.4-7.5-4-2-11.5-2.1-15.2-.1-7.1 3.6-11 12.3-9.1 19.7 2.8 10.6 35.9 35.6 71.4 53.9l17.6 9 7.5-.4c4.1-.2 8.1-1 8.9-1.6.8-.7 2.5-3.4 3.8-5.9 2.2-4.5 2.2-5.6 2.3-32.7 0-29-1-40.2-5.5-63.9-2.1-10.6-4.7-15.3-9.9-18.1-3.8-1.9-9.9-2.6-13.5-1.5zm487.4 113c-31.3 3-69.5 17.1-98.5 36.5-42.2 28.2-73.4 73.4-80.9 117-7.3 42.1 8.9 83.2 42.5 108 30.1 22.2 85.3 29.8 125.7 17.3 8.8-2.7 39.1-16.4 51.7-23.5 42-23.4 70.1-52.6 89.2-92.9 3.4-7.3 4.7-11.1 4.7-14.5 0-8.3-6.1-14.9-15.1-16.4-8.7-1.4-15.5 3.5-19.8 14.4-13.7 35-45.1 66.1-87 86.2-23.3 11.1-43.3 15.9-67 15.9-41.7 0-71.3-14.8-84.9-42.4-11.8-24-9.7-51 6.6-82.7 6.7-13.2 13.9-23.2 24.2-33.7 24.6-25.3 63.1-46.5 95.7-52.7 13.9-2.6 32.3-3.7 41.9-2.5 17.5 2.2 17.2 2.2 21.5-.2 10.2-5.8 11.3-23.1 1.9-29.2-5.8-3.9-34-6.3-52.4-4.6zm-640.8 2.4c-7.5 1.3-11.1 3.3-14.6 8-1.6 2.1-2.1 4.2-2.1 9.5 0 5.8.4 7.3 2.7 10.3 1.7 2.2 4.6 4.3 7.4 5.4 4 1.5 5.5 1.6 12.2.6 10.9-1.7 34-1.5 44.5.3 31.2 5.5 63.3 21.2 90.3 44.3 19.2 16.3 38 45 44.9 68.7 3.3 11 4.4 28.1 2.6 37.7-4.8 24.5-21.8 45.3-44.2 54.2-13.5 5.3-22.1 6.8-41.9 7.3-28.9.8-45.8-2.7-70.5-14.7-41.4-20.1-69.1-46.5-86-82.4-6.9-14.6-10.2-17.6-19.3-17.6-5.7 0-10.4 2.6-14 8-2.1 3.1-2.3 4.3-1.9 10.4.4 5.8 1.3 8.5 6 18 17.6 35 42.3 61 79.7 83.6 35.7 21.6 69 31 109.5 31 55 0 99.7-30.9 114.8-79.5 11.8-38-1.3-87-34.1-127.7-27.7-34.2-77.2-63.8-122.9-73.4-11.1-2.3-15.6-2.7-34.3-3-14.2-.2-24 .1-28.8 1zm320.8 193.5c-39.9 8.7-73.3 40.6-84.3 80.6-1.9 7-2.2 10.4-2.1 28 0 18.8.2 20.5 2.7 28.8 5.4 17.7 12.1 29.2 25.5 44.4 21.3 23.9 48.2 36.3 79.2 36.3 19.4 0 34.7-3.3 49.5-10.8 11-5.5 18.2-10.8 29.4-21.6 16.1-15.7 24.7-30.1 30.3-50.6 1.9-7.4 2.3-10.9 2.3-26.5 0-20.3-1.4-28.1-7.8-43.2-9.5-22.5-31.1-45.4-53.2-56.4-16.1-8-24.7-10-45.5-10.5-14.4-.3-19-.1-26 1.5zm40.1 33.7c23.9 4.9 46.5 25.6 54.5 49.9 2.7 8.3 2.9 10.1 2.8 23.5 0 12.9-.3 15.4-2.7 22.5-3.6 10.8-8.8 19.5-17.1 28.2-16.5 17.5-35.9 25.3-59.1 23.9-5.5-.3-12.7-1.3-16-2.2-8.8-2.3-20.5-8.8-28-15.4-18.2-16.1-26.5-33.8-26.5-56.6 0-21.1 6.1-36.9 20-51.8 18.9-20.3 43.6-27.9 72.1-22zM922.9 1313c-4.5 1.3-7.9 4.1-10.6 8.8-3.6 6.1-3.6 12.7.1 18.3 2.9 4.4 3 4.4 23.6 12.5 14.6 5.7 29 12.5 36.2 17.1 3.1 1.9 3.7 2.7 2.8 3.8-2.1 2.5-35.6 18.4-46.5 22-15.4 5.1-19.5 9.4-19.5 20.7 0 8.8 5.3 14.8 14.2 16.3 3.2.6 4.4.3 6.1-1.3 1.2-1.1 5.4-3 9.2-4.2 33.9-11.1 82.1-37.4 86.9-47.5.9-1.8 1.6-5.8 1.6-8.8 0-4.3-.5-6.1-2.7-9.1-8.6-11.6-59.4-38.9-87.7-47-9.5-2.8-9.8-2.8-13.7-1.6zm871.6 6.4c-33.4 11.3-78.3 36.3-82.9 46-2 4.3-2.1 12.8-.1 16.6 3.3 6.4 21.5 18.1 49.5 31.9 22.4 11 45.9 19.6 50.6 18.5 9.3-2.2 14.4-7.8 14.4-15.8 0-9.8-3.6-13.1-21.6-20-23.9-9.2-43.9-19.4-43.2-22 .6-2 34.6-18.3 46.1-22.1 6.1-2 12.4-4.6 14-5.7 3.8-2.7 6.7-8.8 6.7-14.3 0-9.2-6-15.5-16-16.9-3.7-.5-6.8.1-17.5 3.8zm-202 73.2c-41.9 6.2-69.5 21.4-88.3 48.7-23.1 33.5-25.6 72.5-7.3 115.1 9.7 22.5 22.1 40.6 39.7 57.8 16 15.7 35.9 29.8 56.9 40.5 33.8 17.1 59.4 22.8 99.5 22.1 19.8-.3 21.9-.5 26-2.6 6.6-3.2 9.5-8 9.5-15.6 0-7.2-2-11-7.3-14.6-3.4-2.4-4.2-2.5-13.6-2-18.8.9-38.8.4-49.1-1.4-24.1-4.2-55.1-18-77.6-34.7-19.8-14.7-36.8-35.5-48.4-59.3-7.8-15.9-10.9-28-10.9-42.6.1-13 1.7-20.4 6.8-31.5 11.6-24.8 32.6-38.3 67.1-43.2 32.7-4.6 65.9 2.9 98.4 22.2 34.1 20.3 54.3 41 69.7 71.5 6.1 12.1 10.8 17.2 17.4 19 8 2.1 15.1-1.5 19-9.5 3.4-7.1 2.5-12.3-4.8-26.9-10.4-20.8-22-36.4-38.9-52.6-29-27.8-70-49.7-108.8-58-8-1.8-14.2-2.2-31-2.5-11.5-.2-22.3-.1-24 .1zm-490.7 2.5c-9.2 1.1-27.2 5.5-38.3 9.5-13 4.6-40.1 18.5-53 27.2-32.4 21.7-52.2 43.8-69.6 77.8-5.7 11.1-6.9 14.3-6.9 18.2.1 12.7 13.6 21 25 15.2 4.7-2.4 6.9-5.4 11-15.2 9.1-22 28.8-46.3 50.6-62.4 10.3-7.7 27.7-18.2 37.3-22.7 11.2-5.1 27.4-10.2 39.1-12.3 14.1-2.5 39.4-2.3 52.6.4 28.6 5.8 47 19.1 57.3 41.4 9.1 19.5 9.4 39.5 1 63.6-6.9 19.7-17.7 36.1-35.9 54.3-10.1 10.2-15.2 14.4-26.5 21.8-23.1 15.2-42.2 23.5-65 28.3-11.2 2.3-33.6 3-50.5 1.4-9.1-.8-9.7-.7-13 1.6-4.3 2.8-8 9.9-8 15.1 0 2.2 1 5.7 2.2 7.9 4.8 8.5 12.3 10.3 41.8 10.3 24.5-.1 32.1-1.1 54.5-7.6 49.7-14.4 82.5-35.9 111.2-72.9 14.2-18.4 25.9-43.8 30.8-67 11-51.7-16-104.1-63.7-123.5-23.6-9.6-55.8-13.6-84-10.4zm243.2 130.8c-25.6 5.5-51 22.8-70.1 47.6-21.4 27.8-33.1 57.6-37.9 96.5-2.5 20.8-.7 55.7 4.1 76 6.3 27 19.8 55.3 34.6 72.7 4.9 5.8 8.2 7.3 15.7 7.3 9.5 0 15.6-6.6 15.6-17 0-5.9-.9-7.8-6.1-13.8-12.7-14.5-24.5-43.9-28.4-70.3-1.8-12.6-2-39.3-.4-54.1 4.1-38.5 23.4-75.1 50.3-95.5 26.4-19.9 60.8-20.3 88-.9 22.4 15.9 43.5 52.2 49 84 8.5 49 .2 98-22 129.8-12.9 18.5-12.6 17.8-12.2 24 1 13.9 14.5 20.4 27.7 13.3 4.7-2.6 6.5-4.5 12.8-14 10-14.7 15.3-24.7 20.7-38.7 9-23 13.6-49 13.6-77 0-18.9-1.9-34.1-6.4-52-6.2-24.7-14-42.3-27.5-62.4-14.8-22.2-30.3-36.4-50.6-46.4-17.2-8.5-24.2-10.1-45-10.6-13.7-.2-18.6 0-25.5 1.5zm193 142.9c-1.9.9-4.8 3.6-6.4 6l-3 4.3-.4 26.2c-.4 27.5.7 42.6 4.8 65.4 2.2 12.5 4.8 17.1 11.2 20.2 4.4 2.1 9.8 2.8 9.8 1.3 0-.4 1.9-1.7 4.3-3 4.8-2.6 8.6-7.5 9.3-12.3.3-1.9-.6-9-2-15.9-3-14.5-5.6-46.4-3.9-48.1 1.9-1.9 26.7 14.8 43.6 29.6 8.1 7 11 8.5 16.1 8.5 7.1 0 13.1-4.2 16.1-11.2 2-5 1.9-8.3-.6-13.4-4.8-10.1-41-36.6-71.2-52.3-11.9-6.2-14.4-7.1-19-7.1-3 0-6.7.8-8.7 1.8zm-366.8 6.2c-32.2 15.5-74.2 45.7-78.8 56.7-4.2 9.8 1.3 20.6 11.8 23.4 6.9 1.9 10.9.3 20.3-8.2 14.6-13 40.7-30.9 45.1-30.9 1.5 0 1.6 1.3 1 13.2-.9 16.1-2 25.2-4.7 38.1-2.3 10.6-2 14.3 1.1 19.5 3 4.9 7.5 7.2 14.3 7.2 6.6 0 12.1-2.1 14.3-5.5 1.7-2.5 3.6-12 5.8-28.5 2.8-20.3 3.4-34.9 2.6-56.1-.9-23.9-1.6-26.4-8.9-31-6.8-4.4-11.3-4-23.9 2.1z" fill="white"/></svg>